<svg width="516" height="575" viewBox="0 0 516 575" fill="none" xmlns="http://www.w3.org/2000/svg">
<path d="M15.227 458.144H39.579C34.958 550.317 131.507 568.542 206.606 565.635C209.709 570.966 215.419 574.582 222.028 574.582H298.448C308.339 574.582 316.356 566.565 316.356 556.675V540.898C316.356 531.008 308.338 522.991 298.448 522.991H222.028C213.313 522.991 206.067 529.221 204.464 537.471C143.687 540.622 65.081 531.534 68.202 458.15H101.159C109.568 458.15 116.379 451.333 116.379 442.923V264.574C116.379 256.165 109.561 249.347 101.159 249.347H55.038C61.054 139.585 152.015 48.954 259.036 48.954C366.056 48.954 457.018 139.579 463.034 249.347H414.71C406.302 249.347 399.489 256.165 399.489 264.574V442.923C399.489 451.332 406.301 458.15 414.71 458.15H500.648C509.056 458.15 515.875 451.333 515.875 442.923V264.574C515.875 260.798 514.449 257.389 512.172 254.727C508.848 116.023 394.331 0 259.036 0C124.444 0 10.411 114.83 5.955 252.579C2.356 255.357 0 259.672 0 264.574V442.923C0 451.325 6.818 458.144 15.227 458.144Z" fill="white"/>
</svg>
